<?xml version="1.0" encoding="UTF-8"?>
<svg id="Ebene_1" data-name="Ebene 1" xmlns="http://www.w3.org/2000/svg" xmlns:xlink="http://www.w3.org/1999/xlink" viewBox="0 0 535.5277667893 541.0977548395">
  <defs>
    <style>
      .cls-1 {
        fill: #bdcddc;
      }

      .cls-1, .cls-2, .cls-3, .cls-4, .cls-5, .cls-6, .cls-7, .cls-8, .cls-9, .cls-10, .cls-11, .cls-12, .cls-13, .cls-14, .cls-15, .cls-16, .cls-17, .cls-18, .cls-19, .cls-20, .cls-21, .cls-22, .cls-23, .cls-24, .cls-25, .cls-26, .cls-27, .cls-28, .cls-29, .cls-30 {
        stroke-width: 0px;
      }

      .cls-2 {
        fill: #c0d0dd;
      }

      .cls-3 {
        fill: url(#Unbenannter_Verlauf_6);
      }

      .cls-4 {
        fill: #c9d9e0;
      }

      .cls-5 {
        fill: #cef8fe;
      }

      .cls-6 {
        fill: #15334e;
      }

      .cls-7 {
        fill: url(#Unbenannter_Verlauf_8);
      }

      .cls-8 {
        fill: #c3d1de;
      }

      .cls-9 {
        fill: #3f76a9;
      }

      .cls-10 {
        fill: #caeffb;
      }

      .cls-11 {
        fill: #caf4fd;
      }

      .cls-12 {
        fill: #c3d1d9;
      }

      .cls-13 {
        fill: #c9effd;
      }

      .cls-14 {
        fill: #d8e0e7;
      }

      .cls-15 {
        fill: #cdd4df;
      }

      .cls-16 {
        fill: #fdfdfd;
      }

      .cls-17 {
        fill: #17324b;
      }

      .cls-18 {
        fill: #72c3e8;
      }

      .cls-19 {
        fill: #76c4e6;
      }

      .cls-20 {
        fill: #bbcada;
      }

      .cls-21 {
        fill: #c0cdd7;
      }

      .cls-22 {
        fill: url(#Unbenannter_Verlauf_4);
      }

      .cls-23 {
        fill: #c6d5dd;
      }

      .cls-24 {
        fill: #fff;
      }

      .cls-25 {
        fill: #c0cfd7;
      }

      .cls-26 {
        fill: #abe7f8;
      }

      .cls-27 {
        fill: #76cbeb;
      }

      .cls-28 {
        fill: #508eb2;
      }

      .cls-29 {
        fill: #fefefe;
      }

      .cls-30 {
        fill: #3f8eb2;
      }
    </style>
    <linearGradient id="Unbenannter_Verlauf_4" data-name="Unbenannter Verlauf 4" x1="191.3573782756" y1="461.429531447" x2="694.0832039894" y2="461.429531447" gradientTransform="translate(729.2028501694 -173.0419624427) rotate(90)" gradientUnits="userSpaceOnUse">
      <stop offset="0" stop-color="#d4f8fe"/>
      <stop offset="1" stop-color="#61c8e6"/>
    </linearGradient>
    <linearGradient id="Unbenannter_Verlauf_6" data-name="Unbenannter Verlauf 6" x1="358.711812139" y1="125.8032350608" x2="404.3914012909" y2="125.8032350608" gradientUnits="userSpaceOnUse">
      <stop offset="0" stop-color="#a5eafa"/>
      <stop offset="1" stop-color="#539fc2"/>
    </linearGradient>
    <linearGradient id="Unbenannter_Verlauf_8" data-name="Unbenannter Verlauf 8" x1="422.6167693454" y1="189.4060931479" x2="479.0669751638" y2="189.4060931479" gradientTransform="translate(258.8155352025 638.1073164785) rotate(-90)" gradientUnits="userSpaceOnUse">
      <stop offset="0" stop-color="#d4f7fd"/>
      <stop offset="1" stop-color="#97e6f8"/>
    </linearGradient>
  </defs>
  <ellipse class="cls-6" cx="267.7638833946" cy="270.5488774197" rx="267.7638833946" ry="270.5488774197"/>
  <ellipse class="cls-22" cx="267.7733187224" cy="269.6783286898" rx="249.366821403" ry="251.3629128569"/>
  <g id="apple">
    <ellipse class="cls-24" cx="140.6316570285" cy="147.48035256" rx="42.3917169401" ry="37.8322266287"/>
    <ellipse class="cls-24" cx="147.2111747027" cy="112.091570208" rx="37.8322265751" ry="15.7994996759" transform="translate(-23.4685599989 183.5344021174) rotate(-60)"/>
    <path class="cls-23" d="M136.5931151615,106.5077136152c0,.3797550325.407950048,1.1295406795.8353556322,1.5923678578.3843840241.4162401706,1.303347574.4482169918,1.7314520195.2116219135,1.4851475663-.8208210371,2.369944141-.9810090929,4.193659051-1.3176666,5.0854062117-.9387652471,5.6943342604-1.1920646967,10.4467296917-3.7420209681,1.9390881187-1.0404416006,6.3889835002-5.6931315215,7.8956248749-6.9503328197.630966833-.5264584345,1.2435133191-1.0610058794,2.0513028606-.9419040708-.0898916762.4718380514-.1302412764,1.1956802086-.3643419539,1.5795614928-2.3321481553,3.8239863106-3.5032653577,7.4092616768-7.8054462397,10.8995988608-3.5921602597,2.9143011113-7.1171781255,5.6048952088-11.5791482283,7.0918611234-2.8207476474.9400160942-4.9027563615.0467641863-7.0312262038-1.428126031-.6191242574-.4290136196-1.3391611296-.8563188581-1.4356558576-1.2045857605-.1930151086-.6966263897.4044426064-3.0277362867.6678000406-4.3113968827.0750651445-.3658609871.1392556252-1.149973648.3938943128-1.4789781153Z"/>
    <path class="cls-17" d="M191.9376175167,141.0041930052c-.0000231813-8.9715977078-1.3343313684-12.7615530386-3.3717519954-16.3737328157-3.6082667174-6.3971611429-8.2350104401-11.3386771691-14.752110703-14.5837148136-1.1467370465-.5710494466-2.2746122693-1.1799462249-3.6014951938-1.8703508189,9.5566986329-16.0339107766,9.5024013171-32.1312714917,1.7344220033-48.9289315281-2.1319426707,2.7407776069-4.0155276873,5.0715424534-5.8001035894,7.4757138076-3.5221518497,4.744954612-7.5927189573,8.4750812601-12.8477467592,12.1221540413-2.9466497758,2.0449927549-6.1671361284,3.5663689121-9.2127950188,5.4028921322-3.933215925,2.3717042804-8.0002580361,4.6022231713-11.1846286341,8.0441040462-.6510112112.7036387918-1.4387551846,1.2806869167-2.1923005069,1.9412836449-2.0057848982-3.1510995777-4.8661031788-3.485788727-7.6534478458-3.2588902627-2.407844302.3879915127-3.6054319488,2.1483010659-4.4614706762,3.8917817546-.8017634432,1.6329390664-.986442465,2.9916089428-.2126129518,4.8074769198.6580612043,1.5441340298,1.1639909772,3.0525233574,2.1898886672,4.4591825205.6604730441.9056767538,1.7979956259,2.1355295093.9565727571,3.3316783501-2.6664434685.3753193731-7.7664859433,1.502143537-9.0613328905,2.0204031052-1.1916655224.4769614359-4.0276808097,2.0407014821-5.3610360269,2.8519461201-3.3598745616,2.0442266153-6.1561989131,4.6924750671-8.6747073824,7.6073755221-.3545467084.4103493691-1.0556174245,1.5653172023-1.3607105234,2.0997229651-1.6974507876,2.9732808974-3.197914006,5.9962047151-4.1452722984,9.3672764481-1.1709172863,4.1669788563-1.235698003,8.1143714831-1.0590450263,12.5321668019.0821563261,2.0545922274,2.2473798506,10.6458372509,4.4481746364,16.03310683,2.6170237835,6.4061459557,6.5345391661,11.6761186783,10.9870980961,17.1793217418,2.0619781815,2.5485310411,7.9957475892,7.0886764452,9.7865107186,8.2652167566,3.8197911659,2.5096218556,7.9111958742,3.905492856,12.376075131,4.4224788752,1.8276437984.2116219135,3.5013807506.2885753366,5.2520711258.0577150673,1.6767430266-.2211089705,3.4392741152-.352484785,5.1811171639-1.063297254,2.3367016828-.9535424969,4.8610939731.3021602335,7.2410232455.7362295496,4.2029709267.7666558359,5.6500129454.9599122276,9.6676432622-.0635736226.4768021695-.121395935,2.9585437496-.7512875309,4.0922118235-1.2885408565.9729436773-.4610848962,3.7821093471-1.5034443616,4.3017945151-1.7835245873,3.4093832714-1.8374602445,7.1653285821-4.5341969215,9.7438326621-7.9084225987,3.2705784093-4.2799024311,6.6031329642-8.3081280242,9.4075974616-13.1526898847,1.6734747106-2.8908377213,3.2855052234-5.4139394754,4.4870732829-8.3932023921.2070851164-.5134632226.9010633425-2.57521052,1.0533109379-3.0971803595,1.3758367745-4.7169566045,2.0461581206-9.9462299343,2.046150532-12.8831752059ZM136.1991965354,107.9866631619c.075076243-.3658575402.2087800281-1.0542099167.4212633159-1.5458898742.8224397093-2.0488848897,1.395903344-2.9485426121,2.5153062065-4.2028229755,2.7580315376-3.090123321,5.7654102019-5.8450627563,9.694606394-7.6648886242,4.0547973861-1.8778955485,7.8804699942-4.3515773616,11.543188813-6.937440645,2.2422688795-1.5830326763,3.9893685021-3.8676015149,6.2140123988-6.0922454115.5787797022,5.1675213077-1.0308450536,9.6065433214-2.9157287532,13.9922574921-.0898564919.4718548059-.2333986883.9317234527-.5601691606,1.5552992588-2.1571796149,4.1165439689-4.2092130592,7.6289865771-7.5342124684,10.7479901333-3.3736690988,3.1647048277-7.1172154708,5.6049300943-11.5791808833,7.0918602322-2.8207393716.940060931-4.9027136696.0467525863-7.0311931857-1.4281183528-.6191625578-.4289982684-1.1602186124-.9706109014-1.4356630823-1.2045593589.2552221211-1.7206930692.4044469765-3.0277246973.6677704055-4.3114418742ZM178.6992145572,150.9491359986c-1.3351079166,3.7154700834-2.7951986068,7.5355769074-5.2257146724,10.8103605758-1.9409744347,2.6151145708-3.4418808748,5.6652260885-5.7612049429,7.8653805352-3.3766993591,3.2030468958-6.9337155796,6.4545838311-11.6811584161,7.6238255061-7.7089467761,1.8986267242-10.6668439761.4701788082-13.9323325502-.7588637382-1.3182668501-.4961603783-2.6096724708.3769891083-3.8941317523.7505769042-1.2618869349.367032539-2.731299335.5650382432-4.1308897174.8824711134-2.6538066642.601894295-5.2397880431-.1450047229-7.6800751518-1.1987313333-2.6936539684-1.1631870306-6.1339733316-3.0256839098-7.6649195453-4.2553511391-1.5422014659-1.2386961679-2.848661055-2.6243290356-3.8850718927-4.1483025586-2.8237387108-4.1521367654-6.1045519785-7.9013726056-7.8120726921-12.779225773-.7687584655-2.1961965558-1.6934825693-4.3775510207-2.4499963098-6.6046067571-.0735920339-.2166326848-2.0649058935-8.2302486026-1.1901501624-12.0451606949.9831029946-4.2873234765,2.3072648692-8.4944996623,5.6224932352-11.7835070011,2.5423883255-2.5223515028,5.0774174477-4.9186689173,8.743784947-5.6241629704.9474201344-.1823103496,1.9056626268-.3076023335,2.8572261783-.469381124.6937440645-.1178709384,1.384705237-.2526865972,2.5377501721-.4646811286,3.0292089064.6182967692,5.308459329,3.4203598431,8.2175709833,5.1962778588,2.556673838,1.56076954,5.1894752338,2.9724379087,8.324928774,2.9098537589.2540471222-.0050710477.5645560318-.0970301691.7541637428.01360525,3.3350178205,1.946849429,6.3831503927-.1038327941,9.2284410563-1.1015923534,3.9126843659-1.3720276177,7.3418876215-3.9358751329,10.6594659852-6.5157397379,2.9159761214-.160974844,5.7385089122.0386512783,8.5108878043,1.4321380857,3.0766417551,1.5464221855,5.8921863949,3.3966743397,7.5361953279,6.3736267178,2.3080069737,4.1792854233,4.24298273,8.5768114247,4.0931394542,13.547365818-.1518840633,3.5274084235-.6236770271,7.1305115105-1.7783298555,10.3438241858Z"/>
  </g>
  <g id="circle1">
    <ellipse class="cls-24" cx="266.0335033913" cy="83.1479340364" rx="42.3993448146" ry="40.5544539679"/>
    <path class="cls-6" d="M266.5958858593,38.1996215353c-25.3728017258,0-45.9415896864,20.5687261185-45.9415896864,45.9415278443,0,25.3728635679,20.5687879606,45.9415896864,45.9415896864,45.9415896864s45.9415896864-20.5687261185,45.9415896864-45.9415896864c0-25.3728017258-20.5687879606-45.9415278443-45.9415896864-45.9415278443ZM266.5958858593,118.9549432715c-19.2271247872,0-34.8137320499-15.5866691048-34.8137320499-34.8137938919s15.5866072627-34.8137320499,34.8137320499-34.8137320499c6.6505553967,0,12.8640730591,1.8669495064,18.149094253,5.1022161078l-9.7032024383,10.7436948509c-2.6745447764-1.2413553759-5.6442616351-1.9539612642-8.7869506947-1.9539612642-11.5548151175,0-20.9217823553,9.3670290799-20.9217823553,20.9217823553,0,11.5548151175,9.3669672378,20.9218441973,20.9217823553,20.9218441973s20.9217823553-9.3670290799,20.9217823553-20.9218441973c0-4.0425526611-1.1659699226-7.8041569103-3.1515943141-11.0036788095l9.7267024155-10.769730352c4.7874400971,5.9631810629,7.6579623152,13.5312250442,7.6579623152,21.7734091615,0,19.2271247872-15.5866691048,34.8137938919-34.8137938919,34.8137938919Z"/>
    <circle class="cls-16" cx="266.5959167804" cy="84.1411803006" r="9.6687504168"/>
  </g>
  <g id="speech-bubble">
    <path class="cls-15" d="M411.1731259755,135.2580685529c.3766312035,0,2.810866567-1.8523586267,2.9990926023-2.0230752634,2.4817478946-2.2508876254,5.6849341307-3.8957670439,6.8103779434-4.9346382556,1.9141790262-1.7669344857,3.1732675116-8.9103472504,3.5507929586-10.0144415427.3361773325-.9831694182.375725461.9692453554.3791290359,1.51980856.0211674383,3.4079342502.5743239964,6.8629877586.0106769678,10.2241291207-.3356785839,2.0017193661-2.0147764542,2.9369121242-3.8965337422,3.7640274436-4.3056620922,1.8925041923-7.5181664376,5.1549063384-11.890645266,7.5601324148-.3513966917.1932973307.3259719359-1.5063272947.3805200057-1.6260726676.9638176854-2.115798204.8272492982-2.8665150101,1.6565894946-4.4698698098Z"/>
    <circle class="cls-24" cx="448.2216283504" cy="187.2654442239" r="15.5910942072"/>
    <ellipse class="cls-24" cx="377.1721754887" cy="126.6843331475" rx="50.5006839038" ry="46.4712155061" transform="translate(47.1547164412 348.9369978148) rotate(-52.524718241)"/>
    <ellipse class="cls-24" cx="450.5655815369" cy="226.925198606" rx="31.5452973023" ry="15.5910942082"/>
    <ellipse class="cls-24" cx="432.9805247605" cy="182.508039445" rx="38.8347977373" ry="55.782615061" transform="translate(-18.7608693343 53.2368820075) rotate(-6.8870795647)"/>
    <circle class="cls-3" cx="381.551606715" cy="125.8032350608" r="22.8397945775"/>
    <circle class="cls-7" cx="448.2216283504" cy="187.2654442239" r="28.2251029111"/>
    <path class="cls-6" d="M490.5982714918,232.6656686455c-.2372260859-2.9120182305-1.5769721559-5.3400606142-3.2241350332-7.981148844-3.0653865029-4.9152057628-4.9964043683-10.2772821451-7.9921567281-14.9202592243,1.4240367778-2.5851830209,2.8032380727-4.9383965298,4.03828556-7.3650165464,2.0302125061-3.9889974499,2.981033953-8.3492326978,3.3102810024-12.7305560833.124178827-1.6524194512-.1884327121-6.2746176032-.4337601059-7.3854862634-.2243010984-1.0158792786-.781745295-3.5236979008-1.9237823461-6.82964996-1.4621314777-4.2324077403-4.835058472-9.0869464566-8.1498539437-12.7885020798-1.753098301-1.9576717869-4.5797745089-4.0270921498-7.1170299447-5.6976313203-5.3887303038-3.5480018246-11.258158826-5.7765417701-17.846315599-5.6751826578-2.9216655895.044959167-7.6528912674.0797143964-11.1253221127.7562663723-3.8621594149.7524940076-7.275778475,1.8015824645-10.9992261822,3.8627778353-2.8047841239,1.55260639-6.4153082563,4.8543531902-7.6798543992,6.2318229078-1.410678896,1.5365893003-4.1876959415,5.4531697151-5.8260772484,8.6257284825-1.4282420369,2.7656999512-3.1164061903,7.0221642471-3.6922793164,11.0710247969-.3813798935,2.6814710855-.3296799437,5.9242205744-.1599853713,8.2011828413.4322758969,5.8005983257,2.3339187907,13.2119964062,7.1334799287,19.2381945133,4.3873220638,5.5087038718,9.7332576723,9.3792738048,15.9243885143,12.2687196888,1.990448071.9289912049,5.7275010282,2.0543927458,8.1995131061,2.2916188317,1.3872407608.1331459236,7.2547521796.1137893634,8.7749533379.0139144602,4.0902947201-.268703687,7.9403949362-.9576240719,11.7524622944-2.9060195521,1.2603408838-.6441467441,2.3556253486-1.1140226046,3.5206057985-1.6724562739,1.0595397626-.5079087183,2.0736256219-1.110497608,2.953637927-1.5877945138,2.4874725893,2.9759629053,5.5295446411,6.1135809171,7.9689659611,9.479025024,1.1959633146,1.6499457694,1.7314535851,5.2376501871.8657267926,6.3487043735-.9070991209,1.1641146613-2.5683001425,1.7314535851-4.1197933757,1.2985592678-1.9313270756-.538829741-3.4132480079-1.6409168308-4.566292943-2.3374437873-3.0227773336-1.22243171-4.3704391855.2388958211-6.6929171978.7411150712-1.6854431034.3644351731-3.3131257365,1.1387594227-5.1237989817,1.4260157232-1.8037469361.2861431437-3.5738517996.5392007932-5.414889489.7497729576-2.1876623535.2502129154-4.3100813492.7356729712-6.5515462822.7961544916-1.6911325716.0455775874-4.7655480131-.091464385-6.6615632808-.4617745525-3.2753402468-.6396941169-11.1515431399-3.4640821691-15.2352207612-5.7291089213-5.0783450783-2.8167196386-9.8396878323-6.1141993376-13.480514567-10.615496291-2.6866039752-3.3215362546-5.2508843848-6.8195697066-7.1102273197-10.7575474691-1.7639206589-3.7360634845-3.4779966293-9.2487252472-4.2858392674-13.5003658635-.9621385412-5.0638121977-.9916990389-10.0594744614-.512979766-14.9488302492.7237992985-7.3946388861,3.425740101-14.2303493666,8.2274038685-20.2236475056,2.8492485544-3.5564741848,6.0281770525-6.7407210988,9.3116804493-9.8059839176,2.5974895879-2.4248884394,5.759968102-4.2223274869,9.0353701908-5.7337470747,3.425740101-1.5808063627,6.7953276249-3.2058297878,10.5042424514-4.1627117552,1.3973210142-.3605391243,3.9308659273-1.0221871672,5.371229005-1.1612699272,4.2790984845-.4132285469,8.7363639016.0009894727,12.7679086787-.0111315682,1.2208856589-.0036486807.9515635515-.446128515.9908950923-.9906477241v-9.5220670875c-.0585644169-1.4571841141.4223811696-1.8034995679-4.8248545345-1.7419667328-4.6627046917.0546683681-9.3272646447.0324052318-13.8287471242.0324052318-.4208969605-4.432528599-.4756890127-8.6677810733-1.3099382042-12.7433573867-.7965255438-3.8910396501-2.1463518672-7.7278438264-3.7288898072-11.3823994951-1.6044918661-3.7049569357-3.8985225375-7.0783786663-6.357609628-10.3256426245-2.5660738289-3.3884493477-5.6314603318-6.2091887192-8.7535559902-9.0904714532-.8619544278-.7954742291-3.0908654256-2.5166620347-3.9376067102-3.1375561698-3.4801611009-2.5518501585-7.2626679614-4.421706241-11.2254443841-6.0529138707-4.8866965799-2.0114743664-9.9887890036-3.3854190875-15.1867365976-3.6723661778-4.8090229709-.2654879006-10.5135187582-.2861431437-14.5484030057.5492810466-1.9719572994.4082811833-3.9091593693.9643030128-5.8629969495,1.4766025163-2.3091201305.6054954658-4.4290654444,1.5755497889-6.6320646252,2.3990384645-2.8934037748,1.0815555308-5.6484050522,2.3497503543-8.206130205,4.1048276008-2.4172200258,1.6587273398-4.7166309552,3.4305637805-6.94424327,5.3438329789-1.4548959584,1.2495803679-2.5164765085,2.2696649056-4.0223921543,4.0111369021-2.2353425705,2.5849974948-5.3610250675,6.6384343559-6.3312030747,8.0467632541-1.5303432537,2.2214281103-3.3368112398,5.5645472387-4.0131158475,7.6010676335-.5086508228,1.5317656208-1.3709144609,4.5563363737-1.8629297735,6.4915594982-1.0881726296,4.2801497993-1.5459274491,8.1886289061-1.7923679998,12.515964186-.1313525043,2.3055332919-.0497210044,4.7976440346.2020379621,7.2950113511.2885549835,2.8627919624,1.2328830157,7.7419438127,2.3663240225,11.520059888.6059902022,2.0200704107,1.6815470545,3.3771940954,2.4826489097,5.4853275786.7981952791,2.1003413855-.9444517163,3.5109584395-1.5691182161,5.5365946342-.3507062391,1.1372752136-.6113086181,2.3134490737-.746247961,3.4897466179-.5909007431,5.1496489566,1.3400552802,9.417739557,4.5657363646,13.3158910423.4045088185.4887995263,2.4932857415,2.0789440378,3.0555536177,2.2916806738,2.0806756151.787187395,3.8489870592,1.2093830385,6.0918743592,1.0757423785,3.622150437-.2157050541,7.0554352675-.8952872902,10.4753003742.3174352187.7033914236.2494708109,6.4382516551,2.4833910143,7.2336022001,2.6741737241,2.301575401.5520639387,6.7294040045,1.7716509146,9.0709293668,2.1161729491,1.56893269.2309181973,6.6449896127,1.3595973666,9.7606536984,1.5152537947,2.7584025899.137784077,5.5459946251-.0598630999,8.5484259258-.0598630999,0,4.4396404342-.3641878049,8.745145472-.0162026159,13.0215229066.2776707835,3.4122585351.8067294813,5.9762297345,1.5613879605,8.8952979581.4119298639,1.5936076661,2.1781386785,7.1729969957,2.9340958406,9.0879359293,1.2122896146,3.070952287,2.8175235852,5.9766007867,4.6878125621,8.7234389141,2.742261816,4.0274632021,5.348038238,8.1690868198,8.9123045206,11.5512282789,1.6082642308,1.5261998367,3.2212902991,3.0838154324,5.0521858932,4.339827373.6242954476.4283180059,1.7595298737,1.1286791693,2.204668916,1.4561946414,2.480298912,1.8247732315,5.0815608647,3.4661229566,7.8548055454,4.7742677415,4.4551009455,2.1014545423,8.9051926854,4.1243696871,13.9421035933,4.7455730324,1.9039310495.2348142461,3.8103357809.5390152671,5.7443220645.6602256759,2.2846925226.143226177,9.9463653605.6482283191,14.3544045095.1008643759,2.9529576645-.3666614868,6.002821814-.6883019645,8.8071730435-1.728547009,2.4396068462-.9049964913,4.6409362917-.7294269247,6.9934695381.0434749579,1.9025086825.6250993942,3.8497291638,1.2505079986,5.822737778,1.4754893595,1.2446330043.141865652,2.5352764903-.0185526136,3.9240014602-.4915824183,6.0240336355-2.051919064,6.8199407589-3.622150437,9.18985162-7.5097269325.7855176598-1.2886645406,1.2552698361-4.5883705532,1.1367186352-6.0436375639ZM474.4796371131,190.6174686069c-.7601005791,4.8358624186-2.4690436598,9.477726341-6.0994809308,13.084911003-2.3540174555,2.3389898384-4.4766838193,4.9665965024-7.723205673,6.2118479272-3.3626612148,1.2898395394-6.7139434932,2.5920474879-10.4087583334,2.5019436279-1.2706066633-.0309828647-8.0445987826-.7170585156-10.0471678944-1.5326932514-2.8951353521-.7628834712-5.0386424852-2.4175910781-6.8749801792-3.8194884036-2.6169698322-1.9978072744-4.9899727956-3.9869566624-6.8503052032-6.5395489254-1.2222461839-1.6770325852-2.5440580608-5.4294842117-3.2194350378-8.3434813876-.3768035822-1.6257655297-.6300467578-3.319309941-.6229967646-5.0275109171.0208407693-5.0693779818,1.6501312955-9.6033893771,4.5815679282-13.7007340904,2.5643422516-3.7350740117,6.1143848637-6.2937267952,10.0396231649-8.4009944898,1.4479696493-.7773545098,6.8248262805-2.3105424976,8.2115104629-2.2845688385,3.0901851631.0579459965,6.1899558431-.3014181289,9.2383357835.7225624576,2.8259959454.9492135538,6.2849452248,2.4528410439,8.6411271518,4.3069892469.3881825185.3054997039.4617127104.5771718091-.0536170533,1.3430236984-2.3613766588,2.0039296368-4.1831814722,4.448916741-6.7568000306,6.2753597077-2.4937804779-1.3432092245-5.2673343689-2.8560511794-8.1798473357-2.7555578558-4.0433566077.1395156543-7.4849282723,1.5780234707-10.4696727481,4.2471261471-.7336940258.6560204169-2.6095487868,2.945474777-2.8204920034,3.318011258-1.7699193373,3.1261772334-2.0101756834,6.1492019353-1.6694878557,9.4520618922.1509564326,1.4634920027.8999872857,4.245641938,2.2221083728,5.9288587278,1.4281801948,1.8182179747,2.7277289354,2.9789313235,4.5263429817,3.972856676.8066676393.4458193048,2.9254997963,1.3461776427,4.1554762359,1.6545220807,1.5997300286.401045664,3.2823283979.5008587251,4.6806388848.4809455865,8.1870210129-.1162630452,12.6923995413-5.2178607326,14.7886593518-12.0182594052.7122348361-2.3104806555.1153354145-4.7383375131-.3079115437-6.7006474535,2.4228476519-2.1794992035,4.9501465184-4.3981444218,7.2627298035-6.4783871425.2934405051-.3074786494.2678378983-.5243587023.7789005609-.5243587023,2.5108488824,4.3909707445,3.7432990038,9.7515010757,2.9771379042,14.625210826ZM453.7420203688,187.2654442239c0,3.0488746768-2.4715791836,5.5203920184-5.5203920184,5.5203920184s-5.5203920184-2.4715173416-5.5203920184-5.5203920184c0-3.0488128347,2.4715791836-5.5203920184,5.5203920184-5.5203920184s5.5203920184,2.4715791836,5.5203920184,5.5203920184ZM378.2734514036,131.4747048722c1.0741344853.3957890901,3.2031705799.7502676939,4.4729114546.0288183931,2.6915513389-1.5292919389,3.588013628-2.5893264379,5.3675184823-4.7037678098,2.2068333876-2.622226406,4.4110694092-5.2970803927,6.7188908568-7.6873991287.8372794517-.8672110017,1.5545853355-1.8503139962,2.4520989393-2.9316840009.2708063165-.2427300279.2631379029-.5583718273.9579951242-.5583718273,1.2181646089,2.9744786962,2.4127055565,6.6476488206,2.2579767591,9.9933034729-.1536774826,3.3201757296-1.1732054419,6.3038070486-2.9078748134,9.1085911724-1.7826587987,2.8821485226-4.2371077357,5.0350556466-6.9632287779,6.9849353358-2.7786249387,1.9875414948-5.6720905555,2.4454818405-9.369997498,2.6814092434-.4072917105.025973659-3.948243542,0-5.4873065241-.3339470448-2.1273663593-.4617127104-4.6171889463-2.0008375346-6.3486425314-3.3090441615-3.5775004802-2.7029921172-5.1536068475-6.1064690819-6.869167027-10.0907665364-2.5763396084-5.9836507799.5244205444-13.9288075536,3.9970987578-17.7457604333,2.9917944689-3.2884507604,3.6581425074-4.1102078587,7.5277848097-5.7921259655.5349336921-.2325260904,4.71224017-1.1927475283,5.3482237642-1.1927475283,3.5013729224-.0977722737,6.8454196816.8795794107,10.586925266,2.2538951841-3.1112114585,4.0241855737-6.4255740358,7.5967386903-10.1611427839,11.0362695674-1.512965639,1.3930539131-2.8667498533,2.6476434867-3.8021107889,4.062836852-.7440216474,1.1256489091-.9464306617,1.9453033779-.9234254209,3.0300128529.0598630999,2.8262433136.6068559908,4.2300577426,3.1454719516,5.1655423623ZM390.9534825359,165.9456464648c-2.457046303,1.3228013496-4.3572946171,1.3180138646-6.7353838955,1.7452420128-2.2644543274.4068134186-4.4440601834.518110957-6.8878002701.3004310046-3.2545013433-.2898997734-6.0781774943-.7235985199-9.5971433305-1.6744970614-3.0858696263-.8338668414-5.676192779-2.499286248-8.652320562-4.0133632157-1.5560701386-.7916360213-3.0044720882-2.1725728945-4.9621438752-1.8169192918-1.6364023615.2973365539-3.2407087014.7712321473-4.8598571322,1.1643620295-2.8304485727.6872506497-5.6843352805,1.0672700183-8.0095961849-.6838493373-1.0207648002-1.1106831341-1.5064722242-1.8067153543-1.9479007438-3.0011326178-.2452655518-.6637506725-.0059986784-2.0130204175.0721696669-2.4817831211.2308563552-1.3851381313.9698069549-2.4824015416,1.5214998412-3.4204216851.8775386232-1.4920011856,1.5848260956-2.7987854455,1.7281141147-4.2730998061.1988221757-2.0458585436-.1907208678-2.7961880796-.9642411708-4.8936228889-.8081518484-2.4632923496-1.5506892866-4.9507030968-2.4446778939-7.3823941612-.7526795337-2.0472809106-1.841779794-6.7700342283-1.9617533619-7.9501041373-.1280130338-1.2588566747-.3122404869-4.4073588865-.1536774826-5.659103726.7208308804-5.6891589601,1.7865548475-11.3301429668,4.5956679145-16.3991498963,2.9384247838-5.3024606506,6.6746119524-10.0537231512,11.3183311361-13.9811259239,6.7774552738-5.7318918134,12.9529400783-8.228084131,21.0408901346-9.1758753178,2.7059605354-.3171260084,5.397140822-.4331416855,8.101122412-.5561455136,1.0153845423-.0461960079,8.5706890622.6093296726,11.9015634656,1.6607681273,3.0198089155.9532332867,5.8109259473,2.5670014596,8.6303047939,4.0236289953,1.5858155684.8192834165,3.0097905041,1.9516112665,4.5217048283,2.9173366464,1.8993547382,1.2131554032,4.1158973269,3.3858519818,5.4461197219,4.6889875609,4.9085886639,4.8089611289,8.4724220521,11.4867888676,10.2904545007,17.2006228038.6487230555,2.0389322345,1.9808007119,5.4829157389,1.9675665142,7.521291395-.0221394522,3.407929592.0106986738,6.81604471.0106986738,10.2240979861-.6620809373,1.9186494563-2.0147519948,2.9369405747-3.8965435921,3.764077931-4.305628722,1.8924902712-8.3461405956,4.3091537185-11.8906174236,7.5601281994-.1174380441-.3834825231.098205168-1.0086437593.1806406144-1.1111778705,1.2495185259-1.5538432309.9693740605-3.092844371,1.8564363587-4.9847780638.2546037006-2.058721689.6129165113-4.1113828576.735363761-6.1779584863.1278275077-2.1566176468.1343209225-4.3294379094.0265920795-6.4910029198-.2445852893-4.9083412957-2.0943427071-9.2337594722-4.3460734196-13.4779790431-1.156879142-2.1806123604-2.862297226-4.0267829396-4.4580075216-5.727315502-3.0207983882-3.2191258276-6.9950155892-5.3690645334-11.1215497479-7.0903141811-3.0062036655-1.2539711531-8.8950505899-2.423033178-12.5239418098-1.9873559687-3.6854766914.4425416764-8.7332099573,1.5294774651-13.1069886132,3.7476279469-3.0498023075,1.5466695537-5.766894411,3.7327858561-8.0703869155,6.3855003905-3.678055646,4.2356853687-6.2169808169,8.9403189671-7.5898742232,14.4513728366-.8120478972,3.2598178934-.9848964139,6.3612583087-.5133508183,9.6145209453.7786531927,5.3721566357,2.6619908412,10.4678174867,6.0561914991,15.0639182956,2.8740472146,3.8917199126,6.4833963482,6.5469081288,10.5325661082,8.7370441641,5.4626933901,2.9546273997,11.5951979731,4.1303065234,17.6090276711,3.5770675859,1.8560034644-.1707458872,3.0516575688-.4760600649,4.5386495488-1.025959532,3.2091074162-1.1866870078,6.3255136065-2.5041080995,9.3928172128-4.0706289497.8033281688-.4102601287.6658533021-.2098919018,1.6469773512-.5018481978-3.889617283,5.2685712098-6.7966881499,10.4609530197-9.0276399351,15.6608795592Z"/>
  </g>
  <g id="clipboard">
    <rect class="cls-24" x="413.1842146961" y="269.3423201416" width="68.7662181876" height="81.6837708505"/>
    <path class="cls-6" d="M426.8581765482,307.6793785651c-.7399220554.0053871153-1.3986971846-.7246828024-1.8827674762-1.9460126372-.3723019669-.9393336208-.486537533-2.1964293484,0-3.2987896614.3419978204-.7748730545,1.1017057735-1.5712627607,2.1811087883-1.9896248216.2878664079-.11157314,1.1693339648-.0000244969,1.7041702151-.0000244969,7.7598215573,0,17.2241853649.165406527,24.9834083279.2329962013,1.6311854337.0142090635,2.4439673635.6535277631,2.8137256543,1.1234289242.9894419883,1.2574158601.8206168245,3.3333212673.0206133748,4.8647564425-.3607340582.6905480543-1.0745103224,1.0137829363-1.6696511046,1.0172196312-8.3674751509.048318751-17.7996813529-.0793110798-28.1506077794-.0039495823Z"/>
    <path class="cls-6" d="M426.6323190314,323.5725277917c-.7399220554.0053871153-1.3986971846-.7246828024-1.8827674762-1.9460126372-.3723019669-.9393336208-.486537533-2.1964293484,0-3.2987896614.3419978204-.7748730545,1.1017057735-1.5712627607,2.1811087883-1.9896248216.2878664079-.11157314,1.1693339648-.0000244969,1.7041702151-.0000244969,7.7598215573,0,17.2241853649.165406527,24.9834083279.2329962013,1.6311854337.0142090635,2.4439673635.6535277631,2.8137256543,1.1234289242.9894419883,1.2574158601.8206168245,3.3333212673.0206133748,4.8647564425-.3607340582.6905480543-1.0745103224,1.0137829363-1.6696511046,1.0172196312-8.3674751509.048318751-17.7996813529-.0793110798-28.1506077794-.0039495823Z"/>
    <path class="cls-6" d="M426.1066779751,338.9088786105c-.7399220554.0053871153-1.3986971846-.7246828024-1.8827674762-1.9460126372-.3723019669-.9393336208-.486537533-2.1964293484,0-3.2987896614.3419978204-.7748730545,1.1017057735-1.5712627607,2.1811087883-1.9896248216.2878664079-.11157314,1.1693339648-.0000244969,1.7041702151-.0000244969,7.7598215573,0,17.2241853649.165406527,24.9834083279.2329962013,1.6311854337.0142090635,2.4439673635.6535277631,2.8137256543,1.1234289242.9894419883,1.2574158601.8206168245,3.3333212673.0206133748,4.8647564425-.3607340582.6905480543-1.0745103224,1.0137829363-1.6696511046,1.0172196312-8.3674751509.048318751-17.7996813529-.0793110798-28.1506077794-.0039495823Z"/>
    <rect class="cls-6" x="462.9026517903" y="301.2333095788" width="6.461270168" height="6.4612701677" rx="1.6626903187" ry="1.6626903187"/>
    <rect class="cls-6" x="462.9026517903" y="316.7074825314" width="6.461270168" height="6.4612701677" rx="1.6626903187" ry="1.6626903187"/>
    <rect class="cls-6" x="462.9026517903" y="332.0438333502" width="6.461270168" height="6.4612701677" rx="1.6626903187" ry="1.6626903187"/>
    <path class="cls-6" d="M490.4694708166,334.7101344893c.0015397078-15.6800163697.0411267065-31.222465896.0411267065-46.8338279703,0-2.0644057168-.095374713-4.3644213916-.200265804-6.4249439901-.124328135-2.442351675-.9710268518-6.4447191013-2.6712851382-9.2591161557-.9114967104-1.5087787999-1.787551709-3.1734064048-3.1332367034-4.4387519965-1.2890668044-1.2121075922-2.7142670128-2.4892408442-4.1977337886-3.4345094634-1.4237458911-.9073055055-2.9979449042-1.406021406-4.5688099041-1.8653102214-1.6574938015-.4846173062-2.8892480985-.8784620405-5.1662761862-.895038513-14.2171215284,0-28.4347125207-.1049244952-42.6514937113.0024533985-3.4894747432.0263556457-7.0924767837.9563546788-8.450432857,1.2716163868-2.4705077327.5735141824-4.8632438769,2.2322248761-6.6681704201,3.695612522-1.8526386878,1.5019318277-4.6396005032,4.4990065485-5.7584621859,7.127380096-.9521901386,2.2368371454-.9699627862,4.6021726913-1.06929437,7.0430614804,0,19.1132656264.0314422388,38.2265958159-.0423534058,57.3395386267-.0085868948,2.2242639984.4296029911,4.3924226468,1.2101710948,6.2859297887,1.5297585318,3.710894367,3.3120234204,7.3700091129,6.6308905313,10.0119964886,3.3366219686,2.6561266987,6.9294303917,4.5082488815,11.2784666228,4.512832863,13.2730796084.0140101967,26.5462219532.0013084744,39.8192388252.0023242723,4.9924036216.0003820739,10.6362466579-.8767385465,12.0815026918-1.5921910675,2.2998271488-1.1384952513,3.8302880399-2.4720024101,5.5825146117-3.9875473301,1.227102977-1.0613522892,2.6115609845-2.3852541778,3.3761819979-3.4514495181,2.4436494754-3.4074477096,3.7128638697-7.7379093969,4.1776489379-10.9060739101.0963428835-.6567123719.379953554-2.993128986.3800724548-4.2039857868ZM477.0342454307,342.3385873141c-.7884144166,1.4098358721-1.4519147603,2.4307690683-3.4345094634,3.2838730834-2.7589077995,1.187149001-4.7051933627,1.3260651617-7.5126560113,1.3079229254-13.3909718629-.0865145789-26.75209922.0578469197-40.1742714143-.0387378711-2.5455498689-.0183175568-4.9651637063-2.0000796021-6.3614057089-4.5831854137-1.0510230075-1.9445765687-1.6220175937-3.8727753539-1.6189831272-6.0971039154.0126543712-9.1706744903.0052941757-18.3412844174.0052941757-27.5119589077,0-6.3795463107-.0511339899-12.7596736894.0199500036-19.1384452426.0404165122-3.621087069.0472054467-9.3347653338,1.020290963-11.0375816273,2.2482273618-3.9342052873,7.3621275089-4.7845904707,11.8400366282-4.8836834161.7914236955-.0175136438.6278117651,1.5768250452.645695749,2.4003921859.0748932176,3.453933155.1407541494,8.7427961344.3193896614,11.8986901783.120509104,2.1289941703,2.6311154369,2.149079021,5.2220611724,2.1089093196,1.669864012-.0258893645,5.5629137772-.7552083045,5.6582487843-2.3153478482.0659336546-1.0789919139.0672902425-8.8129442817,0-13.0800358838-.014405748-.9135150065,4.163356702-1.5686262997,6.0913888536-1.5372292,2.3700481108.0385951223,5.7284766361.869662059,5.7330235,1.4672427795.0313286403,4.1174295279-.275488581,8.3944280392,0,12.601558612.1618801697,2.4721569526,4.2679933119,2.8827578095,6.8200081645,2.8638115406,4.0580684363-.030127276,5.3168840055-1.4144654967,5.1809786409-4.3743616683-.1397145886-3.0421495847-.0427783811-8.2814491109-.0995114231-11.231567297-.0200848507-1.0444122345,4.6569948215-.743503229,7.030948949-.2127305722,2.177630462.4868782815,4.3049984579,2.7304028583,4.3303129267,4.8747091426.1875272556,15.8848236579.7620146643,55.3007137738.7699879248,56.9181735626.0126094223,2.5579539819-.7905446834,5.0725795095-1.4862789491,6.3166855336Z"/>
  </g>
  <g id="building">
    <rect class="cls-24" x="168.2678570297" y="221.0624865352" width="194.4225215015" height="97.1781550383"/>
    <rect class="cls-24" x="160.6685297004" y="324.4738688437" width="211.9877547824" height="19.8734463058"/>
    <rect class="cls-24" x="212.3855370234" y="347.9203116852" width="106.7036742035" height="21.0404167535"/>
    <rect class="cls-24" x="228.4513273736" y="178.49492666" width="116.0385620678" height="97.1781550383" transform="translate(173.9336830478 -120.7205312513) rotate(33.6665921218)"/>
    <rect class="cls-24" x="181.0519059257" y="181.0454991531" width="122.3520810275" height="97.1781550383" transform="translate(-88.39455096 183.8614289424) rotate(-35.5889870888)"/>
    <path class="cls-20" d="M275.9641091471,273.5226563831v-22.8147218913h-18.2240919958c-.0341289974,1.2200417204-.0855323029,2.5639409293-.1053709482,3.9083063814-.0186497254,1.2656169867.0200484548,2.5324228935-.0150829654,3.7973405155-.0153627113.5520784947.2911222128,1.3498438089-.7527728517,1.3590054864v-21.3045603809h19.8612115115v3.2516728639c0,9.8931897443.0174374932,19.786449425-.0372994507,29.6793594234-.0038231937.6970801094.7581579599,1.8583052584-.7265932997,2.1235976016Z"/>
    <path class="cls-12" d="M327.1449234268,315.5367576574v-64.9308837877c-3.9913209713,0-7.8879013379-.0353179174-11.7825701076.0343154946-.6599671559.0117959513-1.3118683056.4749385683-1.9674994004.7295772558v-12.8317104073c4.7346057753-.3539950993,9.4894465025-.0441066005,14.5139622584-.1828372449v3.8281591867c0,23.488489844.0143602885,46.9770263123-.0537578333,70.465329659-.0026575859.9189652168.9263784826,2.2909322623-.7101349171,2.8880498438Z"/>
    <path class="cls-21" d="M246.1722918798,281.1615838875c-1.2757111506-.1346043927-.7368506487-1.1345560418-.7392984251-1.7449615526-.0358307848-8.8860346388-.0245943253-17.7722324626-.0245943253-26.6584069743v-2.1523414908c-3.9855162443,0-7.8841247685-.0353412295-11.7808683201.0343154946-.6605499598.0117959513-1.3130106013.4749385683-1.9692011878.7295772558v-12.5804752946c.0842501343-.0921762676.1566343808-.2011139758.2562239142-.2716332498.0930854417-.065903467.2149613968-.1284966077.3242487874-.1286597928,4.3039603047-.0063642188,8.6079206094-.0054084204,13.2279937589-.0054084204.2404415841.8069969282,1.3946914925-2.0406288117,1.3894423445,1.6531354966-.0046939692,3.3030914366-.6839465466,7.3227908184-.6839465466,10.6267528497v30.4981056785Z"/>
    <path class="cls-25" d="M301.9364626622,251.3697666202c-.8683312124-.4034168715-1.6476099863-.8465809702-2.7314853995-.8094680168-3.5475973809.121409712-7.1019552872.0455752663-11.0185841085.0455752663v2.9123177989c0,8.1236571785.0122155701,16.2473376692-.0246642618,24.3708782869-.0027974588.6104521351.5363194768,1.6102172869-.7392284887,1.7447284311v-40.1043927104c.4844732403-.4844033039.0266045676-1.1471614031.3537207503-1.4742309615,4.355177113,0,9.4952458328.3931996314,14.1602415082.3931996314v12.9213922741Z"/>
    <path class="cls-1" d="M194.9914776001,251.3697666202c-.7787892186-.2546153754-1.5534288732-.7133519947-2.3370670204-.7292741978-3.7881089015-.0768601806-7.579504817-.0768601806-11.3676137185.0000233122-.7836381472.015922203-1.5582778018.4746355102-2.3370670204.7292508856v-12.0834834262c5.2529515793-.3161827812,10.5209161875-.0406330891,16.0417477593-.1677309674v12.2512143935Z"/>
    <path class="cls-2" d="M355.4089551932,250.6058738698h-16.0417477593v-11.4583912566h16.0417477593v11.4583912566Z"/>
    <path class="cls-8" d="M220.1999383648,250.6058738698h-16.3029483778v-11.819822934c.1008043971-.0918732095.1876227715-.2006477326.3065316052-.2707240756.1108102079-.065320663.2557286214-.126305265.3857212399-.12646845,5.10323988-.0062243458,10.2064797601-.0052685474,15.6106955327-.0052685474v12.2222840071Z"/>
    <path class="cls-14" d="M359.2283895979,225.3974349c-.1784761428-.3058707562-.31929048-.6426625351-.5411178966-.9129741152-3.796792373-4.6251047281-8.8449585332-7.8222147875-13.6323367883-11.1668181251-7.3021231863-5.1015976874-15.0157433423-9.622374885-22.4358611511-14.5784582398-.9035122823-.6034546783-3.4748058929-4.8171477632-5.0474491056-4.2540759405,0,.3813798935,1.7700680714,3.5657739759,1.9604178869,3.7679974642,1.4806840913,1.5728287389,2.9016287668,3.2427494889,4.5831139793,4.5777955634,4.0857802508,3.2439244877,8.2720538253,6.364412253,12.475024752,9.4569474138,4.2744603311,3.1451627414,8.6604218699,6.1396782603,12.9101453829,9.3169988652,1.8284219122,1.367018412,3.4365624589,3.0286523279,5.144763435,4.5564600578h-176.0983780191c3.4426848214-3.3719375216,6.7989144635-5.957800805,10.2733242542-8.4042721182,4.2507129857-2.9931549939,8.6747692245-5.7482799554,12.633340388-9.1431608758,1.1729580738-1.0059845514,4.581258718-3.0771364915,4.8384597845-3.3543743807,3.5343965747-3.8086660457,8.3819276743-7.6766334223,11.3395853342-12.0408265611-.4683298093.0863933373-1.5251908984.8899636838-1.8762063477,1.1406094935-2.9974220951,2.140538715-5.8190890973,4.4943706443-9.1362964087,6.2253294931-1.0942331501.5709257625-2.8170906909-.0816314998-3.1643956174,1.6487707705-.4686390195.0867025476-1.0862555262,1.0500779297-1.4523604346,1.292004011-3.6706346005,2.4253831758-7.3501126135,4.8413045186-10.9483301789,7.3718191714-5.0408069568,3.5450952485-10.4530372379,6.6075133332-14.6445673862,11.2742995999-1.0660331774,1.186872534-2.373930594,2.1564321206-3.5706978553,3.2259284526-.2546037006.5092074012-.5092692433,1.0184766445-.7638729439,1.5277458878h188.3374753681c-.583912592-.7536071644-.8838465118-1.1406765261-1.1837804317-1.5277458878Z"/>
    <path class="cls-6" d="M368.4139936871,257.5557509357c-.0398315941-6.0832127728-.0053802579-12.1666184719-.0053802579-18.5171162647h1.5278077299c2.9916707848,0,5.9837095343.0230895461,8.974332092-.0334565465.3181769957-.0060160269,2.2965701727-.6526723374,2.3004246693-.6656059339.0026050993-.0087412982,1.2205357256-.9610992571,1.7113924953-2.0428901254.4891873386-1.0781116376.3644702382-2.3391102628,0-3.3691546295-.2859801113-.8082201829-1.0241042707-1.3871170767-1.6259510558-1.9913138596-6.6388054081-6.6652738035-13.3027805287-13.3055015787-19.944554355-19.9679306481-2.7729973126-2.7815933569-6.0539651855-4.8863873696-9.279831796-7.0665049936-3.9711250988-2.6837592411-7.8347068807-5.5534156706-11.9624778803-7.9710067486-4.444835166-2.6033645822-8.2624683082-6.1345453705-12.8927677682-8.4378523488-.3743299004-.1862682405-3.0771364915-1.8714021337-4.0718039486-2.5127041438-4.8137848084-3.1031719926-9.607347268-6.237512376-14.4204518139-9.3417356833-4.507543-2.907318235-9.005686009-5.8305298757-13.5529316021-8.6748310665-5.9443192391-3.7181292913-11.9128805599-7.398534935-17.9108168523-11.0293432583-2.990495786-1.8102403509-5.6714585959-3.9810178572-8.9223229319-5.5072196627-.8826903386-.4144016635-2.0443124924-.0717367726-2.8926616703.294677346-1.3885394438.5998059976-6.3264823329,3.1062833846-7.8018069126,4.2886840015-2.6573526878,2.1293453048-5.7589786292,3.5424978826-8.61960612,5.3444513994-4.2312327414,2.6654539957-8.4152800023,5.4129723856-12.7305560833,7.9353857305-3.5979701973,2.1031242776-7.0923549686,4.3634510343-10.648272575,6.522727889-4.4763746091,2.7180815763-8.8865782297,5.534986741-13.3152107798,8.3255471945-1.4122867892.8899070323-2.7896946648,1.8380692713-4.2267182721,2.6855526605-8.7485467845,5.1594199998-16.9414427918,11.1736207501-25.532725255,16.5773168289-3.6597504005,2.3018846112-21.1876060817,17.913518332-21.6968134829,18.4227875753-3.8194884036,3.8194265616-8.9685749111,7.0739905424-10.9389654145,12.1033117878-.5695419621,1.4537268046-.361466755,3.2006968981.7638729439,4.5833613475,1.7800614328,1.1406765261,3.6817661687,1.6730128523,5.8377035529,1.5589761207,2.5221659767-.1333932918,5.0568240466-.0312302329,7.74911749-.0312302329v18.9879815979c.1320540779,4.7990617029.1735162325,6.9920697577.1632629997,11.6384874048v47.0411412523c-.4975656362-.0211499795-1.5837283993,2.0636535921-2.308316184,3.2795455058-1.0202700638,1.7120506434-2.1708781093,2.6862806744-3.8028528934,4.6088402702-4.3129260833,5.0161319807-7.7267925116,10.7773987656-12.6263522369,15.2762838793-5.5155064968.2430392381-6.9713919279,2.4140042394-6.5235318356,5.8232943564,1.1020252478,3.0829496438,2.713942744,5.6583115566,5.2199015201,5.6366550636,21.525847626-.186026352,40.351625367,0,60.5274689716,0h4.7302362052c-1.9325639165,3.1072535676-3.6828174834,5.9000403346-5.409385547,8.7074218244-.7447019099,1.2107435635-1.5649129571,2.3966266247-2.1349729309,3.68906353-1.6814233705,3.8120055161-.4602285013,8.4878825635,2.8744801089,10.9161104733,1.0348029445.7535453223,2.1346317421,1.8927182243,3.7160885038,1.8958915837,38.4077936733.0770692791,74.641617135,0,112.1211123908,0,1.1434594181,0,2.2893925181.0392078567,3.4280900987-.0344460193.2166326848-.0140381443,1.0431223985-.3101355577,2.1001558594-.7294269247,2.7168831066-1.0777006347,4.5393916533-4.9077847173,4.6279494622-5.1265200317,1.6165510649-3.9936974453.7437742792-7.4684782883-1.7887193191-10.869296045-1.9171652472-2.5745461891-3.3832546159-5.4850183684-5.1725305134-8.4487983908,20.2736777203,0,40.122376905.0042671011,59.9710760898-.0043907852,3.0490602029-.001360525,6.2540265505.2800849717,8.771057289-2.081850614,1.9653666635-1.8442641126,3.0051921619-5.1911198037.9204570027-7.1757798877-1.1997256071-1.1421342964-1.8435656985-1.5493665328-2.860337068-1.8898678553-.836750764-.28021515-1.9750306142-.3287155209-3.0800242802-.3287155209-6.3231017667-8.0791684859-13.6148973315-15.4276732062-19.3417180971-23.9844478082v-46.1640973655c.0665647755-6.2960292637.0248010178-9.1799605557.0053802579-12.1459632288ZM172.8520687415,225.2886124705c1.1967672612-1.0694963319,2.5046646779-2.0390559186,3.5706978553-3.2259284525,4.1915301483-4.6667862667,9.6037604294-7.7292043514,14.6445673862-11.2742995999,3.5982175654-2.5305146528,7.2776955784-4.9464359957,10.9483301789-7.3718191714.3661049083-.2419260813,3.5225229019-2.3698490191,4.616756052-2.9407747815,3.3172073115-1.7309588488,6.1388743137-4.0847907781,9.1362964087-6.2253294931.3510154493-.2506458097.7699595191-.5398819939,1.4739550505-.8601406554,4.0151882449-2.8244914694,7.5440993675-4.5696527665,11.4198640324-7.0490240479,3.611266237-2.3102332874,7.2697797966-4.5477403294,10.9311380903-6.7783829044,4.4662943557-2.7210499945,8.9621492091-5.3936158254,13.4359882943-8.1023592529,2.6470869083-1.6026366047,5.2789606734-3.230566606,7.912937068-4.8547860845,1.7233522772-1.062755549,3.4382321942-2.139240032,5.3338145676-3.3196809933.8726531016.3891101492,1.8921192189.7281900838,2.7932196614,1.2656592997,3.5763873234,2.1331176695,7.1358299264,4.2962905731,10.6644751909,6.50763843,5.9637376413,3.7373621674,11.8368148442,7.623578138,17.8668471581,11.2496864658,4.6025942236,2.7677407387,8.8557190491,6.0628085979,13.5782868406,8.6531863506,2.3116556544,1.2679474554,4.3453931571,3.0447312597,6.4944660743,4.6055626418.6336335964.4602903434,1.2315224907.9697451128,1.8457995269,1.4567512198,2.0921711902.9667273776,2.2095544376,1.0023358707,3.1130667198,1.605790549,7.4201178088,4.9560833547,15.1337379648,9.4768605524,22.4358611511,14.5784582398,4.7873782551,3.3446033375,9.8355444153,6.541713397,13.6323367883,11.1668181251.2218274166.2703115801.3626417538.607103359.5411178966.9129741152.2999339198.3870693617.5998678397.7741387234,1.1837804317,1.5277458878h-188.3374753681c.2546037006-.5092692433.5092692433-1.0185384866.7638729439-1.5277458878ZM355.4224641725,239.038634671v76.2395537443c-5.2541620132.3414299323-10.5248358525.0265920795-16.0417647163.1895458689v-76.4290996132h16.0417647163ZM327.1584231434,315.427908007h-13.3297436605c-.0935051725-.0807038692-.203336645-.1491630133-.2758155222-.2456984461-.0685209862-.0911551748-.1387117077-.2116853212-.1387735497-.3193523221-.0059986784-21.2006281377-.0057513102-42.4012562754-.0057513102-63.6018844131v-12.8317296694c4.7346269904-.3539838675,9.4894763296-.0440933783,14.5139569865-.182866928v3.828208132c0,23.4884746046.0144091966,46.9770110513-.0537407374,70.4653001298-.0026592079.9189727936.926393839,2.2909385692-.7101322065,2.8880235169ZM287.4359787456,279.5249520128v-40.1043808698c.4844705831-.4844087411.3537435446-.8970681846,1.0811226364-1.0809989524h13.43283435v76.9805451314h-13.4759382556c-.4918916285-.0742104544-.7997053209-.2664351015-1.0380187308-1.0380187309,0-4.02468031.0000227943-8.0780600259.1609130019-12.1133106288.2102955776-5.2743754183-.0572038919-19.3080760245-.1609130019-22.6438359495ZM256.8588596951,289.4418187176c.6456508241-3.5584901164,3.6396469365-6.3216371629,7.1879627707-6.8612512452.8657907948-.1316660994,1.9585554097-.1116857339,2.6225356163-.0241183977,3.6063873825.4756192027,7.5314334904,2.8084328045,9.0398846601,6.30022021.3237431073.7495255894.2562734358,1.6961417772.2581286972,2.5522212107.0173157727,7.8653805352.0102657795,15.7308229124.0102657795,23.9481465276h-18.786191004c-.798720545-.1111301555-.8756739681-.4187849372-1.1066015591-1.106477875.4307298457-8.1971631084-.6470982281-16.9763063532.7740150393-24.8087404304ZM275.9776372188,273.4138447774c-.806296587.1349393429-1.3693065677-.5601034045-1.9798112392-.6921361713-5.7386325963-1.2412316918-11.4706480938-1.7748048589-17.1175070948,1.4222433585v-35.7847758456h19.8611912779v3.2517165855c0,9.8931812015.0174394568,19.7864242451-.0372907533,29.6793580785-.0038342068.6970835349.7581216337,1.8582916201-.7265821906,2.1235939946ZM245.7731532835,297.8161154485c.1881235019,5.7138339361,0,11.6020444355,0,17.5040018735-4.5186127261,0-9.3757856004-.0742104544-14.1013218101-.0742104544v-76.5654613232c.0842288657-.0921446475.1566459008-.2011103314.2562115938-.2716102631.0930722782-.0659236203.2149629496-.1285077702.3242378437-.1286314543,4.3039589867-.0063697307,8.6079179735-.0054421,13.2280134959-.0054421.7179892661.3834097217.6557730487,1.5833418866.6737072418,2.3687358622.0752617692,3.3022415365.0317868113,6.607204123.0317868113,9.9111772367v30.4980849166c-.3194141641,5.614082717-.5986560487,11.1114874992-.4126351764,16.7633557059ZM204.9108856232,238.6004563815c.0850328123-.0918972794,1.7107122328-.1239040605,1.8110200303-.1939710978.0934433305-.0653051999.2157050541-.1262814566.3252891584-.1264669827,4.3041445129-.0061842045,8.6082890257-.0052565739,13.1662332926-.0052565739v77.1531462799c-4.2473116732,0-8.3976550193.0333947045-12.5464523143-.034136809-.6596072555-.0107605159-3.1023835065.0350025977-3.1023835065.0350025977-.064958273-10.7381069061.3464443437-47.9001454683.3703354178-64.2397282284l.0626409956-.6761521583c.2255020969-1.0154054961-.086683074-8.2539057987-.086683074-11.9124370275ZM195.0050025353,239.0097544358v76.4150614689c-5.264737003.0070499932-10.5352871582.0006184205-16.0417647163.0039578909v-76.2513037329c5.2529251723-.3161983778,10.5209398037-.0406302238,16.0417647163-.1677156269ZM214.9091740347,364.9676534168c0-1.1255009579-.1457547645-1.8182306911.7208927224-2.9422589906.5092692433-.7638729439,6.4018885325-8.5669166974,7.9726764838-10.6945304249h86.7500422423c.6022178374,1.6127787001,1.8897073791,2.7389223456,2.8406525101,4.0956749781,1.7999745713,2.5683619846,3.2202389844,5.4027684481,4.798262455,8.1266631767.2877510369.3708049038.5753783897.7416098076,1.0975107785,1.4144512608h-104.1800371922ZM372.202499226,338.7489143529c.1862063985.2317839859.5533888448.8388928449.4283720199,1.1992002369-.1063051956.3063791438-.7911992998.6397966651-1.0076464585.6538348094-1.1380173181.073653876-2.2832701556.0344460193-3.4260493112.0344460193h-177.7755342884c-8.5889324655,0-17.1779267731.0113789363-25.7666737125-.0241183977-.608463884-.0024736818-2.914952205.0345438415-3.2107771514-.7397545462,1.0496450354-3.1985324265,5.1241363731-8.5898976711,10.2612932365-12.5062925598.2012340155-.2546655427,1.5332216487-1.1919678488,1.7528845937-1.2090362533,1.0105608627-.0788486078,2.0306454004-.0347552295,3.0472667836-.0347552295,60.7455240234,0,121.4910480468-.0010513148,182.2365720703.0051947318,1.7957074702.0001855261,3.6950003664-.3253510005,5.2701172609,1.5193972117.8985693558,1.2197912895,3.0352968252,3.9516495305,4.6169689765,5.7291754394,1.4759840959,1.6587273398,2.1827494336,3.6419970575,3.5732059807,5.3727085381Z"/>
    <path class="cls-6" d="M297.2003852385,198.8438211606c-.8020294859-1.8244021793-2.5209291358-1.6898338886-4.8289361095-1.7379469999-2.0294085595-.042299959-4.0652486918.0275197102-6.2719583952.0275197102-.9012092532-.2098237973-.877229413-1.0101898105-.9393188265-1.4419709709-.3830496288-2.6639697866-1.5024524913-5.0436516909-3.1284035471-7.0855523436-1.600348449-2.0096809471-3.3899953988-3.8233844525-5.6187827125-5.3223737892-2.4968725802-1.6792588989-5.2283120383-2.1794373615-8.0290145871-2.481659437-1.5431445571-.1665406281-3.3044060081-.0622749396-4.9659162399.1503380122-3.2206100367.4121153901-6.5272243537,1.3447826741-9.0396192873,3.23560321-2.5409659585,1.9123415677-3.8129073141,3.7593505372-5.7715067317,7.0215184283-1.0858844739,1.8085706157-1.200026885,4.010951376-2.1152273138,5.9322600402-3.02327207,0-5.9649126402-.2179932098-9.1124253793,0-.8993070232.0623367817-1.55532744,1.0732686967-1.8973139507,1.8958915837-.3900377799.9383911958-.3865127833,2.1090611139-.001360525,3.0389799495.3419246686.8254676211.9410504038,2.0511151174,2.0309546107,2.0309546107,3.553938661-.0656144101,6.1328756353,0,9.3883027435,0,3.9688369431,10.2033809009,11.7990293545,14.5994845352,22.2246705663,13.5089619078,7.9828804213-.8350531381,13.857132623-6.1323808989,16.304593409-13.9978232762,4.3863944332-.3860180469,6.5132660561.1170669918,10.7735027168-.1154590986,1.6073984422-.0876920203,1.4955880242-3.526728161.9977595593-4.6592415371ZM266.1861047695,207.8218637754c-4.5874429225,0-8.3063143184-3.7188713959-8.3063143184-8.3063143184s3.7188713959-8.3062524763,8.3063143184-8.3062524763,8.3063143184,3.7188095538,8.3063143184,8.3062524763-3.7188713959,8.3063143184-8.3063143184,8.3063143184Z"/>
  </g>
  <g id="circle2">
    <ellipse class="cls-29" cx="147.0848933027" cy="414.2389036262" rx="36.893997883" ry="35.2446677748"/>
    <path class="cls-6" d="M147.6205528582,368.2917944304c-25.3758938281,0-45.9470936284,20.5711998003-45.9470936284,45.9470936284s20.5711998003,45.9471554705,45.9470936284,45.9471554705c25.3759556701,0,45.9471554705-20.5712616424,45.9471554705-45.9471554705s-20.5711998003-45.9470936284-45.9471554705-45.9470936284ZM147.6205528582,447.0694693991c-18.4796399853,0-33.4603188878-14.9807407446-33.4603188878-33.4603807299s14.9806789026-33.4603807299,33.4603188878-33.4603807299c18.4797018273,0,33.4603807299,14.9807407446,33.4603807299,33.4603807299s-14.9806789026,33.4603807299-33.4603807299,33.4603807299Z"/>
    <path class="cls-6" d="M147.6206147002,392.9714705122c-11.3978600064,0-20.6376799991,9.2397581506-20.6376799991,20.637618157s9.2398199926,20.637618157,20.6376799991,20.637618157c11.3977981644,0,20.637618157-9.2397581506,20.637618157-20.637618157s-9.2398199926-20.637618157-20.637618157-20.637618157ZM147.6206147002,423.4206383709c-5.4187855379,0-9.8116115437-4.3927641638-9.8116115437-9.8115497017s4.3928260059-9.8115497017,9.8116115437-9.8115497017c5.4187236958,0,9.8115497017,4.3927641638,9.8115497017,9.8115497017s-4.3928260059,9.8115497017-9.8115497017,9.8115497017Z"/>
  </g>
  <g id="stats">
    <rect class="cls-29" x="213.7855048539" y="465.529493366" width="104.8105622473" height="20.6619940994"/>
    <path class="cls-11" d="M266.7973961418,458.3847019903h-8.7766306874c-.5711944632-3.2883661985-.7628203912-40.2072692579-.2616090224-52.7085997806h9.0382397098v52.7085997806Z"/>
    <path class="cls-18" d="M266.7973961418,458.3847019903v-52.7085997806h6.4866542235c.5695626123,3.3009081388.7603493026,40.1298262734.2611427792,52.7085997806h-6.7477970028Z"/>
    <path class="cls-10" d="M294.2975351577,458.3847019903h-7.984180545c-.0932020024-.080939808-.2025360173-.1498039189-.2748503274-.2464094962-.0682113705-.0911039083-.1379613433-.2115345098-.1380079676-.3190501765-.0061077851-13.3069520336-.0057814149-26.6139040672-.0057814149-39.9208561008-.2539512396-1.8307055413,5.5139311734-.7663672759,8.4028202549-.7663672759v41.2526830494Z"/>
    <path class="cls-19" d="M294.2975351577,458.3847019903v-40.4863157735c0-1.0740082627-.3296338956-.7626839552,0-.7663672759,4.4199849086-.0491886506,1.4188244805.0024745255,5.9748125112.0024745255v41.2502085239h-5.9748125112Z"/>
    <path class="cls-5" d="M240.0970752004,458.3846814696c-2.1508728249,0-5.1015637244.0000205207-7.5218085199.0000205207-.3277922352-4.8549431281-.1022238071-9.7343173964-.144022504-14.604506675-.0412858295-4.8074795771-.0090218046-9.6155652702-.0090218046-14.4234178418h7.6389275044v25.5546929158c0,.5052676841-.0526951045,1.0205062773-.022612792,1.5103013834.0405944375.6609517414.3132001158,1.3104490555.0585381161,1.962909697Z"/>
    <path class="cls-27" d="M239.9304303484,458.3847019903c.1024031331-.7328256005.1442876683-1.2238933852.1081067359-1.9629302177-.0239952822-.4901310212.022612792-1.0050336992.022612792-1.5103013834v-25.5546929158h-7.6389275044v-.7638927504h3.0555710018c3.7575932884-.5450848477,7.3357529067,1.4369613384,11.2795403905.6388929663v29.152924301h-6.8269034158Z"/>
    <path class="cls-6" d="M323.7318595256,463.682813177c-2.2477109795-2.3995332008-4.7794624733-3.9761961465-7.9912909395-4.5561508476-.5539192-.0999367453-2.8533919715-.7419808599-3.7541213617-.7419808599-.0391460147-.698505902-.1117485759-1.4132762619-.1139130475-2.1281703059-.0115644625-3.8146647241-.259990221-7.5166321057-.259990221-11.3312968298,0-3.9418119693-.1021340949-7.7744085381-.1154301346-11.7161586653-.0134197238-3.9781750919-.0921704183-8.1139549223-.2797961146-12.1279906779-.1845928983-3.9491525342.2220810473-7.2065568732-.1141604157-12.091727755-.1127544118-1.6381815753-2.2294455579-3.4154864212-4.04644871-3.395684867-7.5643287617.0824354464-14.5399306455,0-21.707238173,0-.2443997631-2.9241392713.2127576409-5.8843906536-.6791493418-8.1263539665-.6330450708-1.5912688784-1.3721571301-3.2670507158-2.5950777481-3.2496139559-10.4592410127.1491309181-20.9969204404-.0162644579-31.4950405293.0370433852-.6949809054.0035249966-1.9115829548-.1768942139-2.3398622748,1.2659570364-.5066046558,1.7067253238-1.0394344502,2.7208759418-1.4254524971,4.5191189359-1.2027659396,5.6038169375-.2133550564,11.2329891136-.773582145,17.0946873801-6.412154312,0-12.8547967523-.0265920795-19.2966970881.0294368136-.9398135629.00816315-1.8547666235-.0351262817-2.8853643089.357447022-1.5992971343.6092678306-2.9905086922,1.6374977062-2.9815905315,3.4068164351.0645192579,12.8002998198,0,24.7200589374,0,37.3220454084-5.1387029146.4868205808-9.515882883,2.3579135043-12.9000032875,6.2456136839-2.6762606975,3.9193961849-4.1191373804,7.2091550219-3.8530067922,10.6097449808.2809795414,3.5903283932.9868135173,6.8499341509,2.6534566389,9.9649798162,1.5010919663,2.8055262284,4.8980755162,5.8764785154,8.4397694522,7.0868510265,1.2407987975.4240509048,6.0923072536,1.3605868393,7.4256835929,1.3609578916,29.4649517073.0070499932,58.9299034146.0059368364,88.3949169639.0044526273,2.8517840783-.0001855261,7.9268515282-1.3480947461,10.1320770226-3.0957509471,2.2754780579-1.8033140418,3.6034393671-3.9275443552,5.2105015292-6.8339170611.8518662409-1.5406005132,1.2422830066-2.5846882845,1.5800024161-4.0565289634,1.3920644404-6.0667046468-.0904749123-11.435521812-4.2291919539-15.8538267406ZM286.8756702446,417.167391152c4.4199746638-.049164426,8.8406914321-.0328999681,13.3966567535-.0328999681v41.2501902857h-13.9589864717c-.0931959623-.0808893953-.2025326985-.1497814338-.2748260494-.2463787086-.068211776-.0910933328-.1379696031-.2115616371-.1380314452-.3190431119-.0061223625-13.3069857878-.0057513102-26.6139097335-.0057513102-39.9208955213.3268352096-.2546037006.6512585794-.7272624531.980938523-.7309729758ZM257.7591366207,405.6760878151h15.5248889015c.5695652375,3.3009428535.7603479473,40.1298597925.2611589574,52.7085936545h-15.5243941651c-.5712349727-3.2883270763-.7628216291-40.2072241912-.2616536938-52.7085936545ZM232.4222032812,429.3567674966c0-.2546037006,0,.2546037006,0,0,1.0185384866,0,2.2187735992.0000099768,3.2373120858.0000099768,4.1266273132,0,6.8969505444.1873714205,11.0977977056.2739440215v28.7539599746h-14.1820507292c-.3277628402-4.8549097686-.1022249009-9.7343089871-.1440301236-14.6044937408-.0412486442-4.8074769198-.0090289386-9.61557226-.0090289386-14.4234202321ZM317.4994808222,475.9759205503c.1947507753,1.558006202-.8657260098,4.73263552-3.6543090834,5.2571085127h-94.6777595592c-1.8612882195-.3513277908-2.9139268275-1.9007847126-3.5508465587-4.5149022033.515638974-4.69319282,2.8245735784-7.5143650859,7.8087332217-7.5971715846,8.9093361024-.1480498565,18.0223146725-.4784868926,26.8938436228-.1658486584,7.9651422655.2806966,34.3207523144.2565709389,39.6935892126.1484092016,5.472155223-.1100788407,8.4969104077.0856053992,13.9802173647-.0324918992,4.2204006096-.0908973205,6.6384387687-.3236894422,9.5819072019.3253789571,2.8024482167.614654351,3.5783341736,3.8091944429,3.9246245775,6.5795176741Z"/>
  </g>
  <g id="circle3">
    <circle class="cls-29" cx="385.6047209048" cy="413.1626889539" r="39.981661812"/>
    <path class="cls-17" d="M385.6047518258,391.2743463511c-12.0886356528,0-21.8883735238,9.799737871-21.8883735238,21.8883116818,0,12.0886356528,9.799737871,21.8883735238,21.8883735238,21.8883735238,12.0885738107,0,21.8883116818-9.799737871,21.8883116818-21.8883735238,0-12.0885738107-9.799737871-21.8883116818-21.8883116818-21.8883116818ZM385.6047518258,422.2936978678c-5.0429714284,0-9.1310398349-4.0880684065-9.1310398349-9.1310398349,0-5.0429095864,4.0880684065-9.1309779928,9.1310398349-9.1309779928,5.0429095864,0,9.1309779928,4.0880684065,9.1309779928,9.1309779928,0,5.0429714284-4.0880684065,9.1310398349-9.1309779928,9.1310398349Z"/>
    <path class="cls-6" d="M381.1893110926,365.3594045995h8.6964666411c1.6303140606,0,2.9539222312,1.3236081706,2.9539222312,2.9539222312v5.8702617059c0,3.7635422944-3.0555188425,6.8190611369-6.8190611369,6.8190611369h-.7763154118c-3.7941848564,0-6.8745815714-3.080396715-6.8745815714-6.8745815714v-5.9490942548c0-1.5561626305,1.2634066174-2.8195692479,2.8195692479-2.8195692479Z"/>
    <path class="cls-6" d="M381.1893110926,445.3227282342h8.6964666411c1.6303140606,0,2.9539222312,1.3236081706,2.9539222312,2.9539222312v5.8702617059c0,3.7635422944-3.0555188425,6.8190611369-6.8190611369,6.8190611369h-.7763154118c-3.7941848564,0-6.8745815714-3.080396715-6.8745815714-6.8745815714v-5.9490942548c0-1.5561626305,1.2634066174-2.8195692479,2.8195692479-2.8195692479Z" transform="translate(771.2094418096 906.2887015425) rotate(-180)"/>
    <path class="cls-6" d="M341.5014008781,405.341066415h8.1089634582c1.792439978,0,3.2476738239,1.4552338458,3.2476738239,3.2476738239v5.2827585084c0,3.9256682197-3.187144524,7.1128127437-7.1128127437,7.1128127437h-.1888122279c-3.9563107662,0-7.1683331502-3.212022384-7.1683331502-7.1683331502v-5.361591086c0-1.7182885476,1.3950322923-3.1133208398,3.1133208398-3.1133208398Z" transform="translate(-67.5396292245 758.7857488044) rotate(-90.0000001043)"/>
    <path class="cls-6" d="M421.1709728992,405.341066424h8.6964666411c1.6303140606,0,2.9539222312,1.3236081706,2.9539222312,2.9539222312v5.8702617059c0,3.7635422944-3.0555188425,6.8190611369-6.8190611369,6.8190611369h-.7763154118c-3.7941848564,0-6.8745815714-3.080396715-6.8745815714-6.8745815714v-5.9490942548c0-1.5561626305,1.2634066174-2.8195692479,2.8195692479-2.8195692479Z" transform="translate(838.7490716725 -12.4236937503) rotate(90)"/>
    <path class="cls-6" d="M361.5813329801,370.2676327645h8.6964666411c1.6303140606,0,2.9539222312,1.3236081706,2.9539222312,2.9539222312v5.8702617059c0,3.7635422944-3.0555188425,6.8190611369-6.8190611369,6.8190611369h-.7763154118c-3.7941848563,0-6.8745815714-3.080396715-6.8745815714-6.8745815714v-5.9490942548c0-1.5561626305,1.2634066174-2.8195692479,2.8195692479-2.8195692479Z" transform="translate(-140.0103618193 233.6527267101) rotate(-30.0000000002)"/>
    <path class="cls-6" d="M346.9331450859,384.9060930313h8.6964666411c1.6303140606,0,2.9539222312,1.3236081706,2.9539222312,2.9539222312v5.8702617059c0,3.7635422944-3.0555188425,6.8190611369-6.8190611369,6.8190611369h-.7763154118c-3.7941848564,0-6.8745815714-3.080396715-6.8745815714-6.8745815714v-5.9490942548c0-1.5561626305,1.2634066174-2.8195692479,2.8195692479-2.8195692479Z" transform="translate(-164.4379010037 500.6406319073) rotate(-59.9999999998)"/>
    <path class="cls-6" d="M346.1918490574,424.9556752603h8.6964666411c1.6303140606,0,2.9539222312,1.3236081706,2.9539222312,2.9539222312v5.8702617059c0,3.7635422944-3.0555188425,6.8190611369-6.8190611369,6.8190611369h-.7763154118c-3.7941848564,0-6.8745815714-3.080396715-6.8745815714-6.8745815714v-5.9490942548c0-1.5561626305,1.2634066174-2.8195692479,2.8195692479-2.8195692479Z" transform="translate(151.114754231 952.8007396285) rotate(-120)"/>
    <path class="cls-6" d="M360.0276530985,439.1554930959h8.6964666411c1.6303140606,0,2.9539222312,1.3236081706,2.9539222312,2.9539222312v5.8702617059c0,3.7635422944-3.0555188425,6.8190611369-6.8190611369,6.8190611369h-.7763154118c-3.7941848564,0-6.8745815714-3.080396715-6.8745815714-6.8745815714v-5.9490942548c0-1.5561626305,1.2634066174-2.8195692479,2.8195692479-2.8195692479Z" transform="translate(456.5714558068 1016.2921841368) rotate(-149.9999999999)"/>
    <path class="cls-6" d="M401.5631038862,439.6321997235h8.6964666411c1.6303140606,0,2.9539222312,1.3236081706,2.9539222312,2.9539222312v5.8702617059c0,3.7635422944-3.0555188425,6.8190611369-6.8190611369,6.8190611369h-.7763154118c-3.7941848564,0-6.8745815714-3.080396715-6.8745815714-6.8745815714v-5.9490942548c0-1.5561626305,1.2634066174-2.8195692479,2.8195692479-2.8195692479Z" transform="translate(981.293131082 631.9709425094) rotate(150)"/>
    <path class="cls-6" d="M416.2112917805,424.9937394567h8.6964666411c1.6303140606,0,2.9539222312,1.3236081706,2.9539222312,2.9539222312v5.8702617059c0,3.7635422944-3.0555188425,6.8190611369-6.8190611369,6.8190611369h-.7763154118c-3.7941848564,0-6.8745815714-3.080396715-6.8745815714-6.8745815714v-5.9490942548c0-1.5561626305,1.2634066174-2.8195692479,2.8195692479-2.8195692479Z" transform="translate(1005.7691510237 284.9496339016) rotate(120)"/>
    <path class="cls-6" d="M415.1812063895,384.5507583329h8.6964666411c1.6303140606,0,2.9539222312,1.3236081706,2.9539222312,2.9539222312v5.8702617059c0,3.7635422944-3.0555188425,6.8190611369-6.8190611369,6.8190611369h-.7763154118c-3.7941848563,0-6.8745815714-3.080396715-6.8745815714-6.8745815714v-5.9490942548c0-1.5561626305,1.2634066174-2.8195692479,2.8195692479-2.8195692479Z" transform="translate(549.602757676 -167.1951385381) rotate(59.9999999998)"/>
    <path class="cls-6" d="M401.2981398161,370.4234634276h8.6964666411c1.6303140606,0,2.9539222312,1.3236081706,2.9539222312,2.9539222312v5.8702617059c0,3.7635422944-3.0555188425,6.8190611369-6.8190611369,6.8190611369h-.7763154118c-3.7941848564,0-6.8745815714-3.080396715-6.8745815714-6.8745815714v-5.9490942548c0-1.5561626305,1.2634066174-2.8195692479,2.8195692479-2.8195692479Z" transform="translate(243.4778519732 -152.1815421516) rotate(30)"/>
  </g>
  <g id="pen">
    <rect class="cls-24" x="71.5904013542" y="189.3051811878" width="28.8496689588" height="16.0447887141"/>
    <rect class="cls-24" x="62.5839786072" y="211.694426403" width="45.5332557632" height="16.0447887141"/>
    <ellipse class="cls-24" cx="86.0152358336" cy="355.4823543672" rx="13.2071323802" ry="23.2722973135"/>
    <ellipse class="cls-24" cx="84.8449370569" cy="343.1158355871" rx="23.2722973135" ry="13.2071323802"/>
    <path class="cls-13" d="M76.0392203893,330.0507199158c0-30.6728769172.0000166717-61.533743066.0000166717-92.4310228036,1.5513774035-.3796617839,3.1776167825.0482561644,4.7752221927.008928556,1.6362336538-.0403067189,3.2741924072-.008928556,5.1553668914-.008928556v96.2504865558c.3599703133,1.0003712679.6987352725,1.8293094399,0,2.319843841-2.5506063757-.7046332481-7.3399490949-3.2725184363-9.9306057558-6.1393075932Z"/>
    <path class="cls-26" d="M64.7364125523,251.1372566398v66.5647109721c0,5.4077676119-.1308538587,10.7332595054-.1474404582,16.1409804929-.0016901314.5501668979.5533471535,1.7439869627-.4794979487,1.751167107-1.7824125323-1.2731701255-3.9947957587-2.4846535122-5.7772199471-3.7578236377-.8600127943-.2629927187-1.457733148-.6006797293-2.2216258984-1.1099571044,0-16.5510251344.0000249368-33.9638835439.0000249368-50.5149086782,0-8.865986184.0970834765-17.7337907162-.0643182403-26.5968628807-.0434888283-2.3887034475.3365213242-4.765754168.8737732873-6.9857475375.4316129251-1.7835198598,1.3358461725-3.4828095461,2.8203759666-4.8141435025,1.382294331-1.2396705563,3.0940707525-2.0215658674,4.8403494419-1.9032799844,0,.2546386875.1555788602,1.0057577758.1555788602,1.2603964633v9.96546829Z"/>
    <path class="cls-30" d="M98.1921101521,237.6196971122h7.2383314039c.5205371467,2.8686308173.6680797864,90.7867231436.1309676963,97.2508578237-3.2254466876-1.0833159214-5.6915231831-3.124341864-8.1331918506-5.0995809004v-2.011932371c1.6672388222-.7599763081.7129090638-2.2097593327.7151470308-3.269996219.0609846019-28.9563561958.0487457196-57.9128755767.0487457196-86.8693483333Z"/>
    <path class="cls-4" d="M66.8317228831,219.0765367454c.8095879581,2.1216651163-.0742258409,3.7484992502,1.9238355772,5.7041724865.4015446298.3930259994,1.4079458092.6658271642,2.2385378371.6658271642,8.2104067618,0,16.4371941216-.1027695757,24.6470643547-.0405806016,1.9623122888-.0769534231,4.1909091313.146663881,4.9529592674-1.7635758507.3483536352-.873222014.0797943688-2.0040511413-.0296118158-3.0499209203-.0668035259-.6385330894-.3638349246-1.2773933745-.6623503387-1.8676542087-1.2962532428-2.5630320777-4.7337352907-4.7036328428-7.5857846618-4.7097404937-6.966379447-.0148764926-18.813750356-.0583350056-19.1888982936-.188193907-1.0172280615-.209217119-1.289945941-.6048892092-.9667273776-.6061979915,9.0972658059-.0374748009,18.4177750945.088063884,27.5151322244.0651383801,2.1823474483-.0055186989,4.7707295194.4519564651,5.901891752,2.0103890335.4743826596.6536277124.1090199965,1.9691720749.690434416,2.8184191206,0,2.3482608961.5493199716,5.2518243978-.4387533945,7.6768688374-.0450768265.1106327842-.1571686509.1869159308-.2569858127.2515261522-.0925569016.059920418-.2130361246.1135150547-.3212550969.1135586808-12.3376021099.005016999-24.6751813889.0047334295-37.2755341407.0047334295-1.1535736744.1103757476-1.832496349-.5629667045-1.8750120158-2.2559420124,0-.7508920531.1038991652-2.2107088491,0-3.6168108852-.1442876683-1.9526931109-.0470883582-3.2512821255.7310575193-1.2120164137Z"/>
    <path class="cls-28" d="M98.1921101521,237.6196971122c0,28.9564727566.0122388823,57.9129921375-.0487457196,86.8693483333-.002237967,1.0602368863.9520917914,2.5100199109-.7151470308,3.269996219,0-28.9564960687-.0122388823-57.9129921375.0487457196-86.8693483333.002237967-1.0602135741-.9520917914-2.5100432231.7151470308-3.269996219Z"/>
    <path class="cls-9" d="M61.5252800745,237.6197112127c-.7262111383.5092692433-1.4331894005,1.0488410888-2.1820965694,1.5221182617-2.319262226,1.4657183163-4.7815032608,2.508534894-5.1895370758,5.4351478471-.2546655427.2007392791-.1929471814,1.1091010737-.2330208268,1.2806509074-1.3445079075,5.7605865224-.9752490548,11.4349652336-.8529254892,17.2046425367.2016669098,9.5156355148.0547302101,19.038630233.0547302101,28.558594691,0,4.0617855372.0503394249,8.1244987051-.0140381443,12.1852329276-.0651815158,4.1082289133-.4453864105,8.2400814878-.047742059,12.3279643682-.1788471951,4.0881302485-.0021026295,8.2732906662-.0021026295,12.6491719516.7521229553.2463168665,2.2823328711,1.5289624433,3.0520808093,1.780968778,0-16.5509721176.0673556412-34.3793950801.0673556412-50.9304290397,0-8.8659848286.0970920112-17.7337630765-.0643157271-26.596841329-.0434749579-2.3887108429.3818127879-4.6622099553.9190964777-6.8822156985.4315956344-1.7835245873,1.5232384638-3.1321579072,3.007818604-4.463493459,1.3822933972-1.2396856407,2.7939547206-1.8981359019,4.5402503966-1.7798320692v-2.2916806738h-3.0555536177Z"/>
    <path class="cls-6" d="M117.2586918501,216.2696108514c.0307354965-1.7718027799-1.263350791-4.974989016-3.0570996688-7.450358569-2.2369877239-3.0870381972-4.312219988-4.6083517963-7.3540892919-7.1438083331-.2042968125-3.6809929576-1.5959795825-9.052518442-2.6837506302-11.0428162133-.8871259202-1.6231768123-1.9911698224-3.8091944429-3.7317243648-5.4035183808-2.9982724257-2.7463761602-6.6798066842-4.2596182402-10.5556331911-4.7867598346-2.8671827476-.3900377799-5.8388167098-.0565854715-8.8316006514.5268942262-7.3015666079,1.4233565153-15.6191980206,7.6347097061-16.4639603598,15.6381216865-.0961902132,2.8268100685-.2693354152,3.7502511456-.5290532181,5.4528456314-2.2917425158.9735174776-4.0257989465,2.932750189-5.4605962402,4.5878288482-2.6109093118,3.0117076075-4.3431668435,6.5736857344-4.6625810076,10.600468674-.2201576814,2.7752236262-.0759420317,5.5827288-.0166355102,8.3742168842.0134197238.6320257033.3499641345,1.2571250975.5373455319,1.8855639621-7.9910091276,7.8727538292-9.8480429838,9.918825388-11.2574785635,13.9308483411-1.397000306,3.9766253766-1.6133352785,8.1094710881-1.567634007,12.3166472739.1186130429,10.9165433676.0398262772,21.8351893648.0398262772,32.7530314154,0,15.0232262298.0708921338,30.0466197246,0,45.0696786893-.0056925994,1.2063433845.967496648,1.4715035991,2.1083808514,1.5494524457,2.17683616.1487283875,4.9037980157.0557753881,7.4800757821.0557753881.0853461204,1.7541905988.0736056579,4.5417956656.0736056579,4.5417956656,0,0,4.4514701381,8.1938505522,5.7220599768,10.4024767802,1.3234204514,2.3004600152,9.3566369924,17.5886705816,12.2229102167,22.9969040248,2.9134619115,5.4972715131,7.5595084336,13.8151176647,10.3071505076,19.3973517284.2035840132.4136614412,5.0736402663,9.5263005278,6.1505576437,11.2753790958.109774447-.2179595489.0337705733-.0605097015.109774447-.2179595489,3.1141798766-6.4513003267,6.248396576-12.8935098727,9.2875002096-19.3802456914,4.3354365878-9.2536726108,8.8436146637-18.411139761,13.3426068059-27.6001048304,1.6615830372-3.3936997457,3.5596281291-6.6472159263,5.3196527392-9.9835324298,1.2068475146-2.2876609408,2.3368253669-4.6160139475,3.5011255543-6.9261235507v-118.4033984076c0-1.00685034-.0480552396-2.0182273396-.0307354965-3.0166549712ZM75.3388758976,199.8786859472c.4619709664-2.9589948064,1.630341841-5.6250906011,4.5379074442-7.4034204566,2.7656381092-1.6915036238,5.6786897036-1.998201795,8.3387195501-1.4496393846,3.3586611629.6926370641,5.7401168054,2.7205552581,6.8130144498,5.9789507845v4.6292481452c-6.285254435,0-13.3973972924.0416189137-19.8088713419.0416189137,0-.673342452.0253463895-1.1954197501.1192298978-1.7967580022ZM64.5808336921,334.8048658934c-2.3470778386-.9042027213-5.8691141972-2.8500927049-6.6949462431-3.2512821255-.7285493693-.3539294712-4.136246491-2.3470794042-4.825257171-2.8665150101v-12.5530271414c0-4.1071100172-.0174196148-8.219714319.047761901-12.3279432323.0643775692-4.0607342225.0140381443-8.1234473903.0140381443-12.1852329276,0-9.519964458.1469366997-19.0429591762-.0547302101-28.558594691-.1223235657-5.7696773031-.0902656202-12.4437411853.8529254892-17.2046425367.4061660287-2.0501851383,3.1032956767-5.2500804382,5.4225579026-6.7157987546.7489071689-.4732771729,1.4964440364-1.0023973421,2.342279209-1.2694191395.9077152612-.2865567292,1.7436247259-.2526991222,2.8953709781-.2526991222v79.4448269537c0,5.4077776538.0065552568,10.8154934656-.0100184113,16.2232092773-.0016697352.5501468352.0335755629.6129157284.0100184113,1.5171184497ZM66.1583804311,223.6456462413c0-.8025242222-.0341986511-2.2643073492,0-3.7707177314.0125539352-.5521876227,0-.9522986107.0740320124-1.8812697515.571606025-2.6020040572,1.3806745058-4.0793663938,4.2545980364-4.7078671005.6348657405,0,.8819654177.001360525,1.2120164137,0,9.2889844187-.0400736454,18.6877446602.0245085946,27.976852763.0000191447,2.2283544193-.0059368364,3.2774052792.5388290576,4.8726397182,1.7891479422.7118191636.5579123174,1.2262518704,1.501035085,1.2794125009,2.5843047073.1009730557,2.057557308.2885134945,5.2553252699,0,8.1068118802-.0124734937.1232801966-.1589340565.1997498064-.2609115892.268827371-.0944946453.0640065169-.2174984734.1212722509-.3280102084.1213340929-12.5975956858.0053802579-24.3974662198.0050692605-37.2633326983.0050692605-.8361408041.0000033397-1.832496349-1.0054488872-1.8172969485-2.5156598153ZM76.0392370609,330.050749265v-92.4310521528c1.8353020354-.0301313009,3.1776298151.0482508958,4.7751953721.008919355,1.6362795726-.0402846672,3.27422709-.0089052545,5.1554002668-.0089052545v96.2504646139c-.0000065549.7639005919.1021603282,1.1944078698,0,2.0601338795-2.5506133176-.7046282645-7.3399705181-3.0128105878-9.930595639-5.8795604411ZM84.8449370569,377.5149923365c-5.3908614412-10.253869969-11.3142645511-21.1920243724-16.3726392274-31.5417956656,1.4641104232-1.1853264828,4.7421622182-3.2901638678,6.2856276318-3.7230870936,1.5775451733-.4424821828,3.3330451375,1.3707328488,5.0421119023,3.1647392713.2455328526.2577356974,1.4872260741,1.4574796596,2.4752756158,2.2027619891,1.4581641931,1.0998881746,3.9193150204,1.4535908657,5.5923284077.7530404094,2.5381850785-1.0628287427,4.9695289113-5.5722485304,5.8958969176-5.9875468288.6697203017-.3002410487,1.5074172691-.2966345904,2.4363292178,0,1.2397825989.3959066345,2.3266832714,1.6547076069,3.8327226013,2.725811832-4.4082865172,10.4498832936-10.0226672829,21.997750647-15.1876530668,32.4060760861ZM105.5613926602,334.8705327519c-3.2254337162-1.083287108-5.6915089578-3.1243219721-8.1331565915-5.0995568999v-2.0119072607c0-28.9565482526-.012244725-57.9130346633.0487315317-86.8693973898.0022263136-1.0602200251-.9521201299-2.5100449358.7151414122-3.2699599888h7.2383021956c.5205863376,2.8686051146.6680796157,90.7867199091.130981452,97.2508215392Z"/>
  </g>
</svg>